<?xml version="1.0" encoding="UTF-8"?>
<svg version="1.1" xmlns="http://www.w3.org/2000/svg" width="536" height="176">
<path d="M0 0 C2.82092154 2.1935759 5.46600147 4.48131264 8 7 C6.41332422 10.90285767 3.86649519 13.33520982 0.875 16.25 C-0.49011719 17.58804687 -0.49011719 17.58804687 -1.8828125 18.953125 C-2.93082031 19.96632813 -2.93082031 19.96632813 -4 21 C-7.21028718 19.81583316 -9.31238097 18.75774537 -12.0625 16.625 C-21.47439957 9.76891799 -34.05415775 8.0479636 -45.390625 9.40625 C-57.9950077 11.91517926 -69.37162512 18.26919715 -77.0078125 28.7578125 C-84.51603033 40.78981012 -86.88435391 53.62483713 -84.34375 67.61328125 C-81.10851309 80.37294408 -74.87017209 90.21304281 -63.80859375 97.4296875 C-55.56986864 102.27262504 -47.74409004 104.55421323 -38.1875 104.4375 C-37.31311279 104.42992676 -36.43872559 104.42235352 -35.5378418 104.41455078 C-23.17375836 104.10118857 -12.40033662 99.89857449 -3.75 90.875 C1.03392874 84.90508336 3.51951332 77.40243338 5 70 C-9.52 70 -24.04 70 -39 70 C-39 63.4 -39 56.8 -39 50 C-17.88 50 3.24 50 25 50 C25 89.40339018 25 89.40339018 9.27734375 105.75390625 C8.52582031 106.49511719 7.77429688 107.23632812 7 108 C6.36191406 108.64839844 5.72382812 109.29679687 5.06640625 109.96484375 C-7.22150686 121.63963853 -23.92211906 125.43100873 -40.38671875 125.203125 C-56.51461329 124.29647579 -71.82409376 118.93346683 -84 108 C-84.66128906 107.40703125 -85.32257813 106.8140625 -86.00390625 106.203125 C-99.26667011 93.61985758 -106.77145856 77.00233528 -107.35400391 58.69140625 C-107.54249587 39.01810597 -100.24012415 22.65217849 -86.8125 8.4375 C-63.42889616 -14.31940759 -27.14640359 -17.85070468 0 0 Z " fill="#585858" transform="translate(108,12)"/>
<path d="M0 0 C0.99 0.99 0.99 0.99 2 2 C2.33 0.02 2.66 -1.96 3 -4 C9.27 -4 15.54 -4 22 -4 C22.04537644 6.46694961 22.08198799 16.93383274 22.10362434 27.40085888 C22.11401425 32.26231256 22.12808478 37.12369483 22.15087891 41.98510742 C22.17277963 46.68596908 22.18460457 51.3867625 22.18975449 56.08767128 C22.19341957 57.87160629 22.20057551 59.65553802 22.21146011 61.43944359 C22.31053199 78.36618714 22.24253237 95.88098148 10 109 C0.70710207 117.48738247 -9.39088228 120.36428364 -21.78125 120.2109375 C-33.87005962 119.41870968 -44.1614765 114.71732364 -52.4609375 105.8671875 C-59 97.93401015 -59 97.93401015 -59 93 C-56.37690901 91.82887054 -53.75171858 90.66294036 -51.125 89.5 C-50.37863281 89.16613281 -49.63226563 88.83226562 -48.86328125 88.48828125 C-48.14785156 88.17246094 -47.43242187 87.85664063 -46.6953125 87.53125 C-46.03547363 87.23798828 -45.37563477 86.94472656 -44.69580078 86.64257812 C-43 86 -43 86 -41 86 C-39.921875 87.57421875 -39.921875 87.57421875 -38.75 89.6875 C-35.5372793 94.97959095 -32.22133685 98.58850127 -26.0625 100.3125 C-18.44753146 101.79799576 -12.64724923 101.05320075 -6 97 C-1.47084294 92.99723407 0.72035203 88.39811324 1.4140625 82.44921875 C1.48367188 81.20785156 1.55328125 79.96648437 1.625 78.6875 C1.69976562 77.43324219 1.77453125 76.17898437 1.8515625 74.88671875 C1.90054688 73.93410156 1.94953125 72.98148437 2 72 C1.236875 72.7425 0.47375 73.485 -0.3125 74.25 C-6.76227315 79.56424971 -14.84059048 81.73752831 -23.10546875 81.3828125 C-32.33711147 80.16189349 -40.12464914 77.30362658 -47 71 C-48.01513672 70.13761719 -48.01513672 70.13761719 -49.05078125 69.2578125 C-57.48408125 61.60272662 -62.26810381 51.35217713 -63 40 C-63.10539726 27.69863407 -60.21170111 17.27618088 -52 8 C-51.401875 7.3090625 -50.80375 6.618125 -50.1875 5.90625 C-37.03727626 -8.30447565 -15.8264529 -11.96634244 0 0 Z M-36.45703125 19.0078125 C-42.60143578 26.9410943 -43.04516593 35.16890801 -42 45 C-40.31993762 51.70974914 -35.5719264 56.16359166 -30 60 C-25.09558042 62.63437395 -20.58979252 63.60979555 -15 63 C-7.79756155 60.6849305 -2.15266613 56.6871861 1.375 49.9375 C4.92673077 41.90815992 4.90001058 33.81580306 2.1640625 25.53125 C-0.31118508 20.14883245 -4.02051327 15.60473213 -9.27734375 12.7734375 C-19.61028233 8.99352493 -29.06353187 10.85296879 -36.45703125 19.0078125 Z " fill="#585858" transform="translate(391,56)"/>
<path d="M0 0 C8.76268339 7.10770343 14.23528552 16.88667408 16 28 C17.26836019 41.43522281 14.61078316 52.89485485 6.19140625 63.5625 C-1.74827125 72.39379904 -12.52451395 78.22160304 -24.47265625 79.203125 C-38.79908916 79.46242695 -50.28368446 75.24655931 -60.66796875 65.484375 C-69.74326817 55.81621683 -72.62242692 44.44346072 -72.28125 31.421875 C-71.28843745 19.34265564 -66.14282833 9.14255678 -57.33203125 0.8203125 C-40.49366026 -12.32320656 -17.15690724 -12.65135421 0 0 Z M-45.9375 16.6875 C-50.63958502 22.67600451 -52.59817359 29.15313276 -52.28125 36.74609375 C-51.34738616 44.22997482 -48.35906061 50.65303659 -43 56 C-37.47660041 59.95672103 -31.49289395 61.37111778 -24.77734375 60.81640625 C-18.77197209 59.81722778 -14.24200149 57.37138716 -10 53 C-4.88759698 45.68025672 -3.08394592 38.88063543 -4 30 C-6.09260029 22.24373155 -9.54409749 15.90154082 -16.5625 11.6875 C-26.74000426 6.69127063 -38.00194085 8.29991533 -45.9375 16.6875 Z " fill="#585858" transform="translate(211,58)"/>
<path d="M0 0 C9.99794874 8.38585346 14.2425693 18.71056927 15.67578125 31.58984375 C16.13815263 44.13418041 11.63185499 56.04504006 3.28515625 65.3828125 C-6.87440656 74.96696644 -18.43656961 78.60909718 -32.20703125 78.3359375 C-45.85223049 77.09831323 -56.23851851 70.62774936 -64.921875 60.28125 C-72.62112222 49.99776471 -73.46876074 38.58243236 -72.609375 26.02734375 C-70.61174823 14.55659628 -64.52116 5.36646081 -55.609375 -1.97265625 C-38.0210783 -13.83335201 -16.80542179 -12.70469761 0 0 Z M-46.546875 15.77734375 C-52.38217729 23.26414669 -53.72723386 30.60006735 -52.609375 40.02734375 C-50.79458517 46.41813589 -47.39994062 52.4839965 -41.79296875 56.24609375 C-34.9561569 59.99229202 -28.39807549 60.85996646 -20.84375 58.8671875 C-14.50507227 56.48464255 -10.72886925 52.83996139 -7.671875 46.83984375 C-3.84117319 38.38632891 -3.62303124 31.22655483 -6.57421875 22.38671875 C-9.64068194 15.39749698 -14.66230012 11.78247366 -21.609375 9.02734375 C-30.71294123 5.99282167 -40.0717881 8.83779914 -46.546875 15.77734375 Z " fill="#585858" transform="translate(306.609375,58.97265625)"/>
<path d="M0 0 C2.54155612 2.226236 4.90471945 4.53446294 7.23828125 6.9765625 C7.82480469 7.55535156 8.41132812 8.13414063 9.015625 8.73046875 C13.74719317 13.72690842 18.23828125 20.97550853 18.23828125 27.9765625 C17.14588135 28.42459229 16.05348145 28.87262207 14.92797852 29.33422852 C10.78844436 31.03202701 6.64897433 32.72998178 2.50952148 34.42797852 C0.73414774 35.15620978 -1.04124229 35.88440132 -2.81665039 36.61254883 C-14.4687595 41.39146366 -26.11770687 46.17795048 -37.76171875 50.9765625 C-37.76171875 53.76863677 -37.05921395 55.50514307 -35.76171875 57.9765625 C-33.62601994 59.23439851 -33.62601994 59.23439851 -30.76171875 59.9765625 C-30.10945313 60.24597656 -29.4571875 60.51539062 -28.78515625 60.79296875 C-22.02587036 63.45607962 -16.06906893 63.73190897 -9.26953125 60.9609375 C-4.78268426 58.63660365 -1.58575485 56.27400874 1.23828125 51.9765625 C5.02954413 53.35644557 8.21351156 55.08716321 11.55078125 57.3515625 C12.87529297 58.22941406 12.87529297 58.22941406 14.2265625 59.125 C14.89042969 59.73601562 15.55429687 60.34703125 16.23828125 60.9765625 C16.23828125 65.68120797 15.67104831 66.13493621 12.48828125 69.3515625 C3.4383097 77.97531875 -7.30647739 81.79820894 -19.63671875 82.2890625 C-31.55377648 81.97152334 -41.91034356 77.77996192 -50.57421875 69.6015625 C-58.62394519 60.90936963 -62.88235582 50.38772793 -63.19921875 38.4765625 C-62.65102055 24.25767175 -58.24606133 12.32641307 -47.70703125 2.47265625 C-34.38695327 -7.77150011 -13.99949108 -10.25705287 0 0 Z M-39.609375 22.21484375 C-42.28766611 26.30945151 -43.04562423 30.15016941 -42.76171875 34.9765625 C-38.33783193 34.28823696 -34.38528066 32.7380563 -30.2734375 31.03515625 C-29.5702388 30.74802261 -28.8670401 30.46088898 -28.14253235 30.16505432 C-25.90969658 29.25221902 -23.67944936 28.33324179 -21.44921875 27.4140625 C-19.93050559 26.79190978 -18.41162707 26.17016054 -16.89257812 25.54882812 C-13.1803607 24.02940493 -9.47045155 22.50447044 -5.76171875 20.9765625 C-7.20654039 16.8080101 -8.51269324 14.77323553 -12.578125 12.7109375 C-23.36608073 9.08278781 -32.89578588 13.64153465 -39.609375 22.21484375 Z " fill="#585858" transform="translate(516.76171875,55.0234375)"/>
<path d="M0 0 C6.6 0 13.2 0 20 0 C20 42.24 20 84.48 20 128 C13.4 128 6.8 128 0 128 C0 85.76 0 43.52 0 0 Z " fill="#585858" transform="translate(425,6)"/>
</svg>
